<?xml version="1.0" encoding="utf-8"?>
<!-- Generator: Adobe Illustrator 23.0.6, SVG Export Plug-In . SVG Version: 6.00 Build 0)  -->
<svg version="1.1" id="Layer_1" xmlns="http://www.w3.org/2000/svg" xmlns:xlink="http://www.w3.org/1999/xlink" x="0px" y="0px"
	 viewBox="0 0 123.9 51.3" style="enable-background:new 0 0 123.9 51.3;" xml:space="preserve">
<style type="text/css">
	.st0{fill:#FFFFFF;}
	.st1{fill:url(#SVGID_1_);}
	.st2{fill:url(#SVGID_2_);}
	.st3{fill:url(#SVGID_3_);}
	.st4{fill:url(#SVGID_4_);}
	.st5{fill:url(#SVGID_5_);}
	.st6{fill:url(#SVGID_6_);}
	.st7{fill:url(#SVGID_7_);}
	.st8{fill:url(#SVGID_8_);}
	.st9{fill:url(#SVGID_9_);}
	.st10{fill:url(#SVGID_10_);}
	.st11{fill:url(#SVGID_11_);}
	.st12{fill:url(#SVGID_12_);}
	.st13{fill:url(#SVGID_13_);}
	.st14{fill:url(#SVGID_14_);}
	.st15{fill:url(#SVGID_15_);}
	.st16{fill:url(#SVGID_16_);}
	.st17{fill:url(#SVGID_17_);}
	.st18{fill:url(#SVGID_18_);}
	.st19{fill:url(#SVGID_19_);}
	.st20{fill:url(#SVGID_20_);}
	.st21{fill:url(#SVGID_21_);}
	.st22{fill:url(#SVGID_22_);}
	.st23{fill:url(#SVGID_23_);}
	.st24{fill:url(#SVGID_24_);}
	.st25{fill:url(#SVGID_25_);}
	.st26{fill:url(#SVGID_26_);}
	.st27{fill:url(#SVGID_27_);}
	.st28{fill:url(#SVGID_28_);}
	.st29{fill:url(#SVGID_29_);}
	.st30{fill:url(#SVGID_30_);}
	.st31{fill:url(#SVGID_31_);}
</style>
<g>
	<g>
		<path class="st0" d="M6.3,15.6c0.5,0,0.7,0.2,0.7,0.6V26c0,0.4-0.2,0.6-0.7,0.6H6.1c-0.4,0-0.6-0.2-0.6-0.6v-9.8
			c0-0.4,0.2-0.6,0.6-0.6H6.3z"/>
		<path class="st0" d="M9.3,18.6c0.4,0,0.6,0.2,0.6,0.6V20c0.4-0.7,1.3-1.6,2.5-1.6c1.6,0,3,0.8,3,3.3V26c0,0.4-0.2,0.6-0.6,0.6
			h-0.1c-0.4,0-0.6-0.2-0.6-0.6v-4.2c0-1.7-0.8-2.2-1.9-2.2c-1.3,0-2.2,1.1-2.2,2.9V26c0,0.4-0.2,0.6-0.6,0.6H9.2
			c-0.4,0-0.6-0.2-0.6-0.6v-6.8c0-0.4,0.2-0.6,0.6-0.6H9.3z"/>
		<path class="st0" d="M23.9,18.9c0,0.7-0.7,1-1.2,1.2c0.2,0.2,0.4,0.8,0.4,1.4c0,1.9-1.5,2.8-3.2,2.8c-0.2,0-0.5,0-0.7,0
			c-0.5,0-0.9,0.3-0.9,0.7c0,0.4,0.5,0.6,1,0.6h1.2c2.3,0,3.5,0.6,3.5,2.1c0,1.5-1.6,2.5-3.9,2.6h-0.4c-1.9,0-3.3-0.9-3.3-1.9
			c0-0.5,0.3-0.8,0.6-0.8c0.1,0.3,0.3,0.5,0.6,0.7c0.5,0.4,1.4,0.8,2.3,0.8H20c1.7,0,2.6-0.6,2.6-1.3c0-0.8-0.8-1.1-2.5-1.1
			c-2.2,0-3.2-0.3-3.2-1.4c0-0.7,0.4-1.1,1.2-1.4c-0.8-0.5-1.4-1.2-1.4-2.5c0-1.9,1.5-2.9,3.3-2.9c1,0,1.9,0.6,2.2,0.9
			c0.5-0.3,0.6-0.9,0.6-1.5C23.3,17.9,23.9,18.3,23.9,18.9z M17.9,21.4c0,1.4,0.9,1.9,1.9,1.9c1,0,1.9-0.5,1.9-1.9
			c0-1.4-0.9-1.9-1.9-1.9C18.8,19.5,17.9,20.1,17.9,21.4z"/>
		<path class="st0" d="M31.1,21.1c0,1.6-1.4,2.4-3.2,2.4c-1.1,0-2.1-0.3-2.5-0.4c0,1.6,1.3,2.6,2.8,2.6c1.4,0,2.1-0.6,2.3-1.1
			c0.3,0,0.7,0.2,0.7,0.6c0,0.7-1.1,1.6-3,1.6c-2.1,0-4.1-1.2-4.1-4.1c0-2.9,2-4.2,3.8-4.2C29.9,18.5,31.1,19.7,31.1,21.1z
			 M25.4,22.1c0.4,0.1,1.4,0.4,2.3,0.4c1.4,0,2.1-0.4,2.1-1.4c0-0.8-0.8-1.5-2-1.5C26.5,19.6,25.4,20.8,25.4,22.1z"/>
		<path class="st0" d="M33.1,15.2c0.4,0,0.6,0.2,0.6,0.6V26c0,0.4-0.2,0.6-0.6,0.6H33c-0.5,0-0.6-0.2-0.6-0.6V15.8
			c0-0.4,0.2-0.6,0.6-0.6H33.1z"/>
		<path class="st0" d="M40.7,19.6c0,0.3-0.2,0.5-0.6,0.6c-0.1-0.3-0.8-0.7-1.8-0.7c-1,0-1.8,0.4-1.8,1.1c0,0.6,0.3,1,1.8,1.3
			c2.1,0.5,3,1.2,3,2.5c0,1.5-1.5,2.4-3.3,2.4c-1.7,0-3-0.5-3-1.3c0-0.4,0.2-0.7,0.5-0.8c0.3,0.5,1.1,1.1,2.6,1.1
			c1.3,0,1.9-0.6,1.9-1.2c0-0.7-0.5-1-2.2-1.4c-2-0.4-2.6-1.2-2.6-2.2c0-1.6,1.6-2.4,3.1-2.4C39.9,18.5,40.7,19,40.7,19.6z"/>
		<path class="st0" d="M43.6,16.5c0.4,0,0.6,0.2,0.6,0.6v1.6h2.3c0.4,0,0.6,0.2,0.6,0.6c0,0.4-0.2,0.6-0.6,0.6h-2.3v4.1
			c0,1.4,0.6,1.9,1.6,1.9c0.4,0,0.9-0.1,1.2-0.4c0.3,0.1,0.4,0.3,0.4,0.6c0,0.5-0.8,0.9-1.8,0.9c-1.5,0-2.7-0.7-2.7-2.9v-4.1H42
			c-0.4,0-0.7-0.1-0.7-0.6c0-0.4,0.2-0.6,0.7-0.6h0.8v-1.6c0-0.4,0.2-0.6,0.6-0.6H43.6z"/>
		<path class="st0" d="M54.4,21.7v3.2c0,0.7,0.4,1,0.7,1.1c-0.1,0.4-0.5,0.6-0.9,0.6c-0.7,0-1.1-0.5-1.1-1.3
			c-0.4,0.6-1.3,1.4-2.7,1.4c-1.8,0-2.8-1-2.8-2.5c0-1.6,1.3-2.6,3.3-2.6c1.2,0,1.7,0.3,2.1,0.4v-0.7c0-1.4-0.7-1.8-2-1.8
			c-1,0-1.8,0.5-2.3,1.1c-0.4,0-0.7-0.2-0.7-0.6c0-0.8,1.3-1.6,2.9-1.6C53.2,18.5,54.4,19.5,54.4,21.7z M49,24.3
			c0,0.9,0.7,1.5,1.7,1.5c1.4,0,2.4-1,2.4-2.2v-0.3c-0.6-0.2-1.3-0.5-2.1-0.5C49.7,22.7,49,23.3,49,24.3z"/>
		<path class="st0" d="M62.3,14.9c0.4,0,0.6,0.2,0.6,0.6v10.6c0,0.4-0.2,0.6-0.6,0.6h-0.1c-0.4,0-0.6-0.2-0.6-0.6v-0.8
			c-0.4,0.8-1.3,1.5-2.5,1.5c-1.8,0-3.3-1.2-3.3-4c0-3,1.7-4.3,3.7-4.3c1,0,1.7,0.4,2.2,0.8v-3.7c0-0.4,0.2-0.6,0.6-0.6H62.3z
			 M57,22.8c0,2.2,1.1,2.9,2.3,2.9c1.7,0,2.3-1.4,2.3-2.8v-2.3c-0.5-0.5-1.2-0.9-2.2-0.9C58,19.7,57,20.6,57,22.8z"/>
		<path class="st0" d="M7.6,34.6c0,0.7-0.7,1-1.2,1.2c0.2,0.2,0.4,0.8,0.4,1.4c0,1.9-1.5,2.8-3.2,2.8c-0.2,0-0.5,0-0.7,0
			c-0.5,0-0.9,0.3-0.9,0.7c0,0.4,0.5,0.6,1,0.6h1.2c2.3,0,3.5,0.6,3.5,2.1C7.6,45,6,45.9,3.7,46H3.3C1.5,46,0,45.2,0,44.2
			c0-0.5,0.3-0.8,0.6-0.8c0.1,0.3,0.3,0.5,0.6,0.7c0.5,0.4,1.4,0.8,2.3,0.8h0.1c1.7,0,2.6-0.6,2.6-1.3c0-0.8-0.8-1.1-2.5-1.1
			c-2.2,0-3.2-0.3-3.2-1.4c0-0.7,0.4-1.1,1.2-1.4c-0.8-0.5-1.4-1.2-1.4-2.5c0-1.9,1.5-2.9,3.3-2.9c1,0,1.9,0.6,2.2,0.9
			c0.5-0.3,0.6-0.9,0.6-1.5C7,33.7,7.6,34,7.6,34.6z M1.6,37.1c0,1.4,0.9,1.9,1.9,1.9c1,0,1.9-0.5,1.9-1.9c0-1.4-0.9-1.9-1.9-1.9
			C2.5,35.3,1.6,35.8,1.6,37.1z"/>
		<path class="st0" d="M9,34.4c0.3,0,0.6,0.2,0.6,0.5c0.5,2.1,1.3,4.6,2.2,6.3H12c0.8-2,1.6-4.3,2.2-6.3c0.1-0.3,0.3-0.5,0.6-0.5
			h0.3c0.3,0,0.5,0.1,0.5,0.4c0,0.1,0,0.1,0,0.2c-1.2,3.7-2.5,7.2-4.1,10.6c-0.1,0.3-0.3,0.5-0.7,0.5h-0.4c-0.3,0-0.4-0.1-0.4-0.4
			c0-0.1,0-0.2,0.1-0.3c0.7-1.4,1.2-2.2,1.5-3h0c-0.5-0.1-0.6-0.4-0.8-0.8c-0.9-1.9-1.8-4.4-2.5-6.6c0-0.1,0-0.2,0-0.2
			c0-0.2,0.2-0.4,0.5-0.4H9z"/>
		<path class="st0" d="M17.2,34.3c0.4,0,0.6,0.2,0.6,0.6v0.7c0.5-0.9,1.2-1.4,2.3-1.4c1.4,0,2.2,0.8,2.6,2c0.3-1.3,1.4-2,2.6-2
			c1.7,0,2.8,0.9,2.8,3.3v4.3c0,0.4-0.2,0.6-0.7,0.6h-0.1c-0.4,0-0.6-0.2-0.6-0.6v-4.2c0-1.7-0.7-2.2-1.7-2.2
			c-1.7,0-2.1,1.5-2.1,3.2v3.2c0,0.4-0.2,0.6-0.6,0.6h-0.1c-0.4,0-0.6-0.2-0.6-0.6v-4.2c0-1.7-0.8-2.2-1.7-2.2c-1.8,0-2,1.8-2,3.2
			v3.3c0,0.4-0.2,0.6-0.6,0.6h-0.1c-0.4,0-0.6-0.2-0.6-0.6V35C16.5,34.5,16.7,34.3,17.2,34.3L17.2,34.3z"/>
		<path class="st0" d="M30.2,34.3c0.4,0,0.6,0.2,0.6,0.6v0.8c0.4-0.7,1.3-1.6,2.5-1.6c1.6,0,3,0.8,3,3.3v4.3c0,0.4-0.2,0.6-0.6,0.6
			h-0.1c-0.4,0-0.6-0.2-0.6-0.6v-4.2c0-1.7-0.8-2.2-1.9-2.2c-1.3,0-2.2,1.1-2.2,2.9v3.6c0,0.4-0.2,0.6-0.6,0.6H30
			c-0.4,0-0.6-0.2-0.6-0.6V35c0-0.4,0.2-0.6,0.6-0.6H30.2z"/>
		<path class="st0" d="M44,37.4v3.2c0,0.7,0.4,1,0.7,1.1c-0.1,0.4-0.5,0.6-0.9,0.6c-0.7,0-1.1-0.5-1.1-1.3c-0.4,0.6-1.3,1.4-2.7,1.4
			c-1.8,0-2.8-1-2.8-2.5c0-1.6,1.3-2.6,3.3-2.6c1.2,0,1.7,0.3,2.1,0.4v-0.7c0-1.4-0.7-1.8-2-1.8c-1,0-1.8,0.5-2.3,1.1
			c-0.4,0-0.7-0.2-0.7-0.6c0-0.8,1.3-1.6,2.9-1.6C42.8,34.2,44,35.3,44,37.4z M38.6,40c0,0.9,0.7,1.5,1.7,1.5c1.4,0,2.4-1,2.4-2.2
			v-0.3c-0.6-0.2-1.3-0.5-2.1-0.5C39.3,38.4,38.6,39.1,38.6,40z"/>
		<path class="st0" d="M51.1,35.4c0,0.3-0.2,0.5-0.6,0.6c-0.1-0.3-0.8-0.7-1.8-0.7c-1,0-1.8,0.4-1.8,1.1c0,0.6,0.3,1,1.8,1.3
			c2.1,0.5,3,1.2,3,2.5c0,1.5-1.5,2.4-3.3,2.4c-1.7,0-3-0.5-3-1.3c0-0.4,0.2-0.7,0.5-0.8c0.3,0.5,1.1,1.1,2.6,1.1
			c1.3,0,1.9-0.6,1.9-1.2c0-0.7-0.5-1-2.2-1.4c-2-0.4-2.6-1.2-2.6-2.2c0-1.6,1.6-2.4,3.1-2.4C50.2,34.2,51.1,34.7,51.1,35.4z"/>
		<path class="st0" d="M54.2,32c0,0.5-0.4,0.9-0.9,0.9c-0.5,0-0.9-0.4-0.9-0.9c0-0.5,0.4-0.9,0.9-0.9C53.7,31.1,54.2,31.6,54.2,32z
			 M53.3,34.3c0.4,0,0.6,0.2,0.6,0.6v6.8c0,0.4-0.2,0.6-0.6,0.6h-0.1c-0.4,0-0.6-0.2-0.6-0.6v-6.8C52.6,34.5,52.8,34.3,53.3,34.3
			L53.3,34.3z"/>
		<path class="st0" d="M62,36.8c0,1.6-1.4,2.4-3.2,2.4c-1.1,0-2.1-0.3-2.5-0.4c0,1.6,1.3,2.6,2.8,2.6c1.4,0,2.1-0.6,2.3-1.1
			c0.3,0,0.7,0.2,0.7,0.6c0,0.7-1.1,1.6-3,1.6c-2.1,0-4.1-1.2-4.1-4.1c0-2.9,2-4.2,3.8-4.2C60.8,34.2,62,35.4,62,36.8z M56.3,37.8
			c0.4,0.1,1.4,0.4,2.3,0.4c1.4,0,2.1-0.4,2.1-1.4c0-0.8-0.8-1.5-2-1.5C57.4,35.3,56.3,36.5,56.3,37.8z"/>
		<path class="st0" d="M64.6,32.2c0.4,0,0.6,0.2,0.6,0.6v1.6h2.3c0.4,0,0.6,0.2,0.6,0.6c0,0.4-0.2,0.6-0.6,0.6h-2.3v4.1
			c0,1.4,0.6,1.9,1.6,1.9c0.4,0,0.9-0.1,1.2-0.4c0.3,0.1,0.4,0.3,0.4,0.6c0,0.5-0.8,0.9-1.8,0.9c-1.5,0-2.7-0.7-2.7-2.9v-4.1h-0.8
			c-0.4,0-0.7-0.1-0.7-0.6c0-0.4,0.2-0.6,0.7-0.6h0.8v-1.6c0-0.4,0.2-0.6,0.6-0.6H64.6z"/>
	</g>
	<g>
		<g>
			<linearGradient id="SVGID_1_" gradientUnits="userSpaceOnUse" x1="108.0164" y1="20.2478" x2="108.1379" y2="19.7943">
				<stop  offset="0.15" style="stop-color:#72BF44"/>
				<stop  offset="0.85" style="stop-color:#A3CF62"/>
			</linearGradient>
			<path class="st1" d="M108,20.2c0-0.1,0.1-0.3,0.1-0.5C108.1,19.9,108.1,20.1,108,20.2z"/>
			<linearGradient id="SVGID_2_" gradientUnits="userSpaceOnUse" x1="108.3018" y1="19.121" x2="108.4237" y2="18.6662">
				<stop  offset="0.15" style="stop-color:#72BF44"/>
				<stop  offset="0.85" style="stop-color:#A3CF62"/>
			</linearGradient>
			<path class="st2" d="M108.3,19.1c0-0.2,0.1-0.3,0.1-0.5C108.4,18.8,108.3,19,108.3,19.1z"/>
			<linearGradient id="SVGID_3_" gradientUnits="userSpaceOnUse" x1="107.6833" y1="21.3276" x2="107.8014" y2="20.8865">
				<stop  offset="0.15" style="stop-color:#72BF44"/>
				<stop  offset="0.85" style="stop-color:#A3CF62"/>
			</linearGradient>
			<path class="st3" d="M107.7,21.3c0-0.1,0.1-0.3,0.1-0.4C107.8,21,107.7,21.2,107.7,21.3z"/>
			<linearGradient id="SVGID_4_" gradientUnits="userSpaceOnUse" x1="106.8759" y1="23.3503" x2="106.969" y2="23.0028">
				<stop  offset="0.15" style="stop-color:#72BF44"/>
				<stop  offset="0.85" style="stop-color:#A3CF62"/>
			</linearGradient>
			<path class="st4" d="M106.8,23.3c0.1-0.1,0.1-0.2,0.1-0.3C106.9,23.1,106.9,23.2,106.8,23.3z"/>
			<linearGradient id="SVGID_5_" gradientUnits="userSpaceOnUse" x1="107.3034" y1="22.3609" x2="107.4139" y2="21.9485">
				<stop  offset="0.15" style="stop-color:#72BF44"/>
				<stop  offset="0.85" style="stop-color:#A3CF62"/>
			</linearGradient>
			<path class="st5" d="M107.3,22.4c0.1-0.1,0.1-0.3,0.2-0.4C107.4,22.1,107.3,22.2,107.3,22.4z"/>
			<linearGradient id="SVGID_6_" gradientUnits="userSpaceOnUse" x1="106.3422" y1="24.3789" x2="106.3764" y2="24.2514">
				<stop  offset="0.15" style="stop-color:#72BF44"/>
				<stop  offset="0.85" style="stop-color:#A3CF62"/>
			</linearGradient>
			<path class="st6" d="M106.3,24.4c0,0,0-0.1,0.1-0.1C106.4,24.3,106.3,24.3,106.3,24.4z"/>
			<linearGradient id="SVGID_7_" gradientUnits="userSpaceOnUse" x1="108.5358" y1="17.9394" x2="108.6537" y2="17.4991">
				<stop  offset="0.15" style="stop-color:#72BF44"/>
				<stop  offset="0.85" style="stop-color:#A3CF62"/>
			</linearGradient>
			<path class="st7" d="M108.6,17.9c0-0.1,0.1-0.3,0.1-0.5C108.6,17.6,108.6,17.8,108.6,17.9z"/>
			<linearGradient id="SVGID_8_" gradientUnits="userSpaceOnUse" x1="108.8679" y1="12.3611" x2="108.9579" y2="12.0252">
				<stop  offset="0.15" style="stop-color:#72BF44"/>
				<stop  offset="0.85" style="stop-color:#A3CF62"/>
			</linearGradient>
			<path class="st8" d="M108.9,12c0,0.1,0,0.2,0,0.4C108.9,12.3,108.9,12.1,108.9,12z"/>
			<linearGradient id="SVGID_9_" gradientUnits="userSpaceOnUse" x1="108.7536" y1="10.9712" x2="108.8622" y2="10.5658">
				<stop  offset="0.15" style="stop-color:#72BF44"/>
				<stop  offset="0.85" style="stop-color:#A3CF62"/>
			</linearGradient>
			<path class="st9" d="M108.8,10.5c0,0.1,0,0.3,0,0.4C108.8,10.8,108.8,10.7,108.8,10.5z"/>
			<linearGradient id="SVGID_10_" gradientUnits="userSpaceOnUse" x1="108.9318" y1="13.7112" x2="108.9626" y2="13.5964">
				<stop  offset="0.15" style="stop-color:#72BF44"/>
				<stop  offset="0.85" style="stop-color:#A3CF62"/>
			</linearGradient>
			<path class="st10" d="M108.9,13.7c0,0,0-0.1,0-0.1C108.9,13.6,108.9,13.7,108.9,13.7z"/>
			<linearGradient id="SVGID_11_" gradientUnits="userSpaceOnUse" x1="93.65" y1="50.5047" x2="106.0735" y2="4.1395">
				<stop  offset="0.15" style="stop-color:#72BF44"/>
				<stop  offset="0.85" style="stop-color:#A3CF62"/>
			</linearGradient>
			<path class="st11" d="M121.5,16.9c-3.5,7.8-11.4,15.5-27.4,17.3c-8.3,1-12.9-4.9-12.7-11.2c0.2-7,7.5-13.8,15.1-15
				c4.2-0.6,8.5-0.1,12.2,1.8c-0.2-1.7-0.6-3.4-1.1-5.3c-2.4-0.8-5-1.3-7.8-1.3c-13.3,0-24,10.7-24,24c0,13.3,10.7,24,24,24
				s24-10.7,24-24C123.9,23.6,123,20.1,121.5,16.9z"/>
			<linearGradient id="SVGID_12_" gradientUnits="userSpaceOnUse" x1="108.7219" y1="16.6789" x2="108.8253" y2="16.2933">
				<stop  offset="0.15" style="stop-color:#72BF44"/>
				<stop  offset="0.85" style="stop-color:#A3CF62"/>
			</linearGradient>
			<path class="st12" d="M108.7,16.7c0-0.1,0-0.3,0.1-0.4C108.8,16.4,108.8,16.6,108.7,16.7z"/>
			<linearGradient id="SVGID_13_" gradientUnits="userSpaceOnUse" x1="105.7193" y1="25.5178" x2="105.8128" y2="25.1691">
				<stop  offset="0.15" style="stop-color:#72BF44"/>
				<stop  offset="0.85" style="stop-color:#A3CF62"/>
			</linearGradient>
			<path class="st13" d="M105.7,25.5c0.1-0.1,0.1-0.2,0.2-0.3C105.8,25.3,105.7,25.4,105.7,25.5z"/>
			<linearGradient id="SVGID_14_" gradientUnits="userSpaceOnUse" x1="108.8712" y1="15.2314" x2="108.9217" y2="15.0431">
				<stop  offset="0.15" style="stop-color:#72BF44"/>
				<stop  offset="0.85" style="stop-color:#A3CF62"/>
			</linearGradient>
			<path class="st14" d="M108.9,15.2c0-0.1,0-0.1,0-0.2C108.9,15.1,108.9,15.2,108.9,15.2z"/>
			<linearGradient id="SVGID_15_" gradientUnits="userSpaceOnUse" x1="100.2737" y1="31.3452" x2="100.325" y2="31.1536">
				<stop  offset="0.15" style="stop-color:#72BF44"/>
				<stop  offset="0.85" style="stop-color:#A3CF62"/>
			</linearGradient>
			<path class="st15" d="M100.2,31.3c0.1-0.1,0.1-0.1,0.2-0.1C100.3,31.2,100.3,31.3,100.2,31.3z"/>
			<linearGradient id="SVGID_16_" gradientUnits="userSpaceOnUse" x1="105.1467" y1="26.4109" x2="105.2496" y2="26.0269">
				<stop  offset="0.15" style="stop-color:#72BF44"/>
				<stop  offset="0.85" style="stop-color:#A3CF62"/>
			</linearGradient>
			<path class="st16" d="M105.1,26.4c0.1-0.1,0.2-0.2,0.2-0.3C105.2,26.2,105.2,26.3,105.1,26.4z"/>
			<linearGradient id="SVGID_17_" gradientUnits="userSpaceOnUse" x1="97.9693" y1="32.8033" x2="98.0333" y2="32.5644">
				<stop  offset="0.15" style="stop-color:#72BF44"/>
				<stop  offset="0.85" style="stop-color:#A3CF62"/>
			</linearGradient>
			<path class="st17" d="M97.8,32.8c0.1-0.1,0.2-0.1,0.3-0.2C98.1,32.7,97.9,32.7,97.8,32.8z"/>
			<linearGradient id="SVGID_18_" gradientUnits="userSpaceOnUse" x1="98.7288" y1="32.3803" x2="98.7955" y2="32.1314">
				<stop  offset="0.15" style="stop-color:#72BF44"/>
				<stop  offset="0.85" style="stop-color:#A3CF62"/>
			</linearGradient>
			<path class="st18" d="M98.6,32.3c0.1-0.1,0.2-0.1,0.3-0.2C98.8,32.2,98.7,32.3,98.6,32.3z"/>
			<linearGradient id="SVGID_19_" gradientUnits="userSpaceOnUse" x1="96.4452" y1="33.5143" x2="96.4996" y2="33.3113">
				<stop  offset="0.15" style="stop-color:#72BF44"/>
				<stop  offset="0.85" style="stop-color:#A3CF62"/>
			</linearGradient>
			<path class="st19" d="M96.6,33.3c-0.1,0-0.2,0.1-0.3,0.1C96.4,33.4,96.5,33.4,96.6,33.3z"/>
			<linearGradient id="SVGID_20_" gradientUnits="userSpaceOnUse" x1="99.4896" y1="31.9051" x2="99.5554" y2="31.6598">
				<stop  offset="0.15" style="stop-color:#72BF44"/>
				<stop  offset="0.85" style="stop-color:#A3CF62"/>
			</linearGradient>
			<path class="st20" d="M99.7,31.7c-0.1,0.1-0.2,0.1-0.3,0.2C99.5,31.8,99.6,31.8,99.7,31.7z"/>
			<linearGradient id="SVGID_21_" gradientUnits="userSpaceOnUse" x1="94.9122" y1="34.0518" x2="94.949" y2="33.9143">
				<stop  offset="0.15" style="stop-color:#72BF44"/>
				<stop  offset="0.85" style="stop-color:#A3CF62"/>
			</linearGradient>
			<path class="st21" d="M94.8,34c0.1,0,0.2-0.1,0.2-0.1C95,34,94.9,34,94.8,34z"/>
			<linearGradient id="SVGID_22_" gradientUnits="userSpaceOnUse" x1="95.6825" y1="33.8055" x2="95.73" y2="33.6282">
				<stop  offset="0.15" style="stop-color:#72BF44"/>
				<stop  offset="0.85" style="stop-color:#A3CF62"/>
			</linearGradient>
			<path class="st22" d="M95.6,33.8c0.1,0,0.2-0.1,0.3-0.1C95.8,33.7,95.7,33.7,95.6,33.8z"/>
			<linearGradient id="SVGID_23_" gradientUnits="userSpaceOnUse" x1="97.2082" y1="33.1803" x2="97.268" y2="32.9571">
				<stop  offset="0.15" style="stop-color:#72BF44"/>
				<stop  offset="0.85" style="stop-color:#A3CF62"/>
			</linearGradient>
			<path class="st23" d="M97.1,33.1c0.1,0,0.2-0.1,0.3-0.2C97.3,33,97.2,33.1,97.1,33.1z"/>
			<linearGradient id="SVGID_24_" gradientUnits="userSpaceOnUse" x1="101.1983" y1="30.6436" x2="101.2551" y2="30.4314">
				<stop  offset="0.15" style="stop-color:#72BF44"/>
				<stop  offset="0.85" style="stop-color:#A3CF62"/>
			</linearGradient>
			<path class="st24" d="M101.1,30.6c0.1-0.1,0.1-0.1,0.2-0.2C101.3,30.5,101.2,30.6,101.1,30.6z"/>
			<linearGradient id="SVGID_25_" gradientUnits="userSpaceOnUse" x1="103.9348" y1="28.0052" x2="104.0367" y2="27.6249">
				<stop  offset="0.15" style="stop-color:#72BF44"/>
				<stop  offset="0.85" style="stop-color:#A3CF62"/>
			</linearGradient>
			<path class="st25" d="M103.8,28c0.1-0.1,0.2-0.2,0.3-0.3C104,27.8,103.9,27.9,103.8,28z"/>
			<linearGradient id="SVGID_26_" gradientUnits="userSpaceOnUse" x1="104.5536" y1="27.2333" x2="104.6575" y2="26.8455">
				<stop  offset="0.15" style="stop-color:#72BF44"/>
				<stop  offset="0.85" style="stop-color:#A3CF62"/>
			</linearGradient>
			<path class="st26" d="M104.5,27.2c0.1-0.1,0.2-0.2,0.3-0.3C104.7,27,104.6,27.1,104.5,27.2z"/>
			<linearGradient id="SVGID_27_" gradientUnits="userSpaceOnUse" x1="103.2906" y1="28.7306" x2="103.3881" y2="28.367">
				<stop  offset="0.15" style="stop-color:#72BF44"/>
				<stop  offset="0.85" style="stop-color:#A3CF62"/>
			</linearGradient>
			<path class="st27" d="M103.2,28.7c0.1-0.1,0.2-0.2,0.3-0.3C103.4,28.5,103.3,28.6,103.2,28.7z"/>
			<linearGradient id="SVGID_28_" gradientUnits="userSpaceOnUse" x1="102.6231" y1="29.4114" x2="102.7133" y2="29.0746">
				<stop  offset="0.15" style="stop-color:#72BF44"/>
				<stop  offset="0.85" style="stop-color:#A3CF62"/>
			</linearGradient>
			<path class="st28" d="M102.8,29.1c-0.1,0.1-0.2,0.2-0.3,0.3C102.6,29.3,102.7,29.2,102.8,29.1z"/>
			<linearGradient id="SVGID_29_" gradientUnits="userSpaceOnUse" x1="101.9285" y1="30.0509" x2="102.0088" y2="29.7514">
				<stop  offset="0.15" style="stop-color:#72BF44"/>
				<stop  offset="0.85" style="stop-color:#A3CF62"/>
			</linearGradient>
			<path class="st29" d="M101.8,30c0.1-0.1,0.2-0.2,0.3-0.2C102,29.9,101.9,29.9,101.8,30z"/>
		</g>
		<g>
			<path class="st0" d="M84.1,34.1c0,0.1,0,0.1-0.1,0.2l-0.8,0.4l0.6,1.2l0.8-0.4c0.1,0,0.1,0,0.2,0.1l0,0c0,0.1,0,0.1-0.1,0.2l-2,1
				c-0.1,0-0.1,0-0.2-0.1l0,0c0-0.1,0-0.1,0.1-0.2l0.9-0.4L83,34.8l-0.9,0.4c-0.1,0-0.1,0-0.2-0.1l0,0c0-0.1,0-0.1,0.1-0.2l2-1
				C84,33.9,84.1,33.9,84.1,34.1L84.1,34.1z"/>
			<path class="st0" d="M85.3,36.2c0.1,0.1,0,0.1,0,0.2l-1.1,0.7c-0.3,0.2-0.6,0.5-0.3,1c0.3,0.4,0.7,0.3,1,0.1l1.1-0.7
				c0.1-0.1,0.1,0,0.2,0l0,0c0.1,0.1,0,0.1,0,0.2l-1.1,0.7c-0.4,0.3-1,0.5-1.4-0.2c-0.5-0.7,0-1.2,0.3-1.4l1.1-0.7
				C85.1,36.1,85.2,36.1,85.3,36.2L85.3,36.2z"/>
			<path class="st0" d="M87.3,39.3c-0.1,0.1-0.2,0-0.2,0c0-0.1,0-0.3-0.2-0.6c-0.2-0.2-0.5-0.3-0.7-0.2c-0.2,0.1-0.1,0.3,0.1,0.7
				c0.2,0.4,0.4,0.8,0,1.1c-0.3,0.3-0.8,0.2-1.2-0.2c-0.3-0.4-0.4-0.7-0.3-0.8c0.1-0.1,0.2,0,0.3,0c-0.1,0.1,0,0.4,0.2,0.6
				c0.3,0.3,0.6,0.3,0.7,0.2c0.2-0.2,0.1-0.5-0.1-0.8c-0.2-0.4-0.3-0.7,0-1c0.3-0.3,0.7-0.2,1.1,0.2C87.4,39,87.4,39.2,87.3,39.3z"
				/>
			<path class="st0" d="M88,39.7c0.1,0.1,0.1,0.1,0,0.2l-0.6,0.7l1,0.9l0.6-0.7c0.1-0.1,0.1-0.1,0.2,0l0,0c0.1,0.1,0.1,0.1,0,0.2
				l-1.4,1.6c-0.1,0.1-0.1,0.1-0.2,0l0,0c-0.1-0.1-0.1-0.1,0-0.2l0.7-0.8l-1-0.9l-0.7,0.8c-0.1,0.1-0.1,0.1-0.2,0l0,0
				c-0.1-0.1-0.1-0.1,0-0.2l1.4-1.6C87.8,39.6,87.9,39.6,88,39.7L88,39.7z"/>
			<path class="st0" d="M90.5,41.6c0.1,0.1,0.1,0.1,0.1,0.3c-0.1,0.7-0.2,1.5-0.4,2.2c0,0.1-0.1,0.2-0.2,0.1l-0.1,0
				c-0.1-0.1-0.1-0.2,0-0.3c0.1-0.2,0.1-0.4,0.2-0.6l-0.9-0.6c-0.1,0.1-0.3,0.3-0.5,0.4c-0.1,0.1-0.2,0.2-0.3,0.1l-0.1,0
				c-0.1-0.1-0.1-0.1,0-0.2c0.6-0.5,1.2-0.9,1.8-1.3C90.3,41.6,90.4,41.5,90.5,41.6L90.5,41.6z M89.4,42.5l0.8,0.5
				c0.1-0.4,0.1-0.7,0.2-1.1C90,42.1,89.7,42.3,89.4,42.5z M90.9,40.9c0.2,0.1,0.2,0.3,0.1,0.4c-0.1,0.2-0.3,0.2-0.4,0.1
				c-0.2-0.1-0.2-0.3-0.1-0.4C90.6,40.9,90.8,40.8,90.9,40.9z M90.7,41.3c0.1,0,0.2,0,0.2,0c0.1-0.1,0-0.2,0-0.2
				c-0.1,0-0.2,0-0.2,0.1C90.6,41.2,90.6,41.3,90.7,41.3z"/>
			<path class="st0" d="M91.9,42.4c0.1,0,0.1,0.1,0.1,0.2L91,44.5l1,0.5c0.1,0,0.1,0.1,0.1,0.2c0,0.1-0.1,0.1-0.2,0.1l-1.2-0.6
				c-0.1,0-0.1-0.1-0.1-0.2l1-2C91.7,42.4,91.8,42.4,91.9,42.4L91.9,42.4z"/>
			<path class="st0" d="M93.6,43.2c0.1,0,0.1,0.1,0.1,0.2L93,45.3l1,0.4c0.1,0,0.1,0.1,0.1,0.2c0,0.1-0.1,0.1-0.2,0.1l-1.2-0.4
				c-0.1,0-0.1-0.1-0.1-0.2l0.7-2.1C93.4,43.2,93.5,43.2,93.6,43.2L93.6,43.2z"/>
			<path class="st0" d="M95.3,43.8c0.1,0,0.1,0.1,0.2,0.2l0.8,2l0.4-1.8c0-0.1,0.1-0.1,0.2-0.1l0,0c0.1,0,0.1,0.1,0.1,0.2l-0.5,2.1
				c0,0.1-0.1,0.2-0.2,0.1l0,0c-0.1,0-0.2-0.1-0.2-0.2l-0.8-2l-0.4,1.8c0,0.1-0.1,0.1-0.2,0.1l0,0c-0.1,0-0.1-0.1-0.1-0.2l0.5-2.1
				C95.1,43.8,95.2,43.8,95.3,43.8L95.3,43.8z"/>
			<path class="st0" d="M97.9,44.3c0.1,0,0.1,0.1,0.1,0.2l-0.3,2.2c0,0.1-0.1,0.1-0.2,0.1l0,0c-0.1,0-0.1-0.1-0.1-0.2l0.3-2.2
				C97.7,44.3,97.7,44.3,97.9,44.3L97.9,44.3z"/>
			<path class="st0" d="M98.8,44.4c0.1,0,0.2,0,0.2,0.2l1.2,1.8l0-1.8c0-0.1,0-0.1,0.1-0.1h0c0.1,0,0.1,0,0.1,0.1l0,2.1
				c0,0.1,0,0.2-0.1,0.2l0,0c-0.1,0-0.2-0.1-0.3-0.2l-1.2-1.8l0,1.9c0,0.1,0,0.1-0.1,0.1l0,0c-0.1,0-0.1,0-0.1-0.1l0-2.1
				C98.6,44.5,98.6,44.4,98.8,44.4L98.8,44.4z"/>
			<path class="st0" d="M103.1,44.6c0,0.1-0.1,0.2-0.2,0.2c-0.1-0.2-0.3-0.3-0.7-0.3c-0.4,0.1-0.8,0.4-0.7,1.1
				c0.1,0.6,0.5,0.9,1,0.9c0.5-0.1,0.7-0.4,0.7-0.8c0,0,0,0-0.1,0l-0.6,0.1c-0.1,0-0.1,0-0.2-0.1c0-0.1,0-0.1,0.1-0.2l0.7-0.1
				c0.1,0,0.2,0,0.2,0.2l0,0.2c0.1,0.5-0.2,1-0.9,1.1c-0.6,0.1-1.2-0.3-1.3-1.1c-0.1-0.8,0.4-1.3,1-1.4
				C102.7,44.2,103,44.4,103.1,44.6z"/>
			<path class="st0" d="M105,43.9c0,0.1,0,0.2-0.1,0.2c-0.1-0.1-0.3-0.1-0.6-0.1c-0.3,0.1-0.5,0.3-0.4,0.5c0.1,0.2,0.3,0.3,0.6,0.3
				c0.5,0,0.9,0,1,0.5c0.1,0.4-0.2,0.8-0.7,1c-0.5,0.1-0.8,0-0.9-0.1c0-0.1,0-0.2,0.1-0.2c0.1,0.1,0.3,0.2,0.7,0.1
				c0.4-0.1,0.6-0.4,0.5-0.6c-0.1-0.3-0.4-0.3-0.8-0.3c-0.5,0-0.8-0.1-0.9-0.4c-0.1-0.4,0.2-0.7,0.7-0.9
				C104.7,43.7,105,43.8,105,43.9z"/>
			<path class="st0" d="M107,43.2c0,0.1,0,0.2-0.1,0.2c-0.1-0.1-0.3-0.1-0.6,0c-0.3,0.1-0.5,0.4-0.4,0.6c0.1,0.2,0.3,0.2,0.7,0.2
				c0.5-0.1,0.9-0.1,1.1,0.3c0.2,0.4-0.1,0.8-0.6,1c-0.4,0.2-0.8,0.1-0.9,0c0-0.1,0-0.2,0.1-0.2c0.1,0.1,0.3,0.2,0.7,0
				c0.4-0.2,0.5-0.4,0.4-0.6c-0.1-0.3-0.4-0.3-0.8-0.2c-0.5,0.1-0.8,0-0.9-0.3c-0.1-0.4,0.1-0.8,0.6-1C106.6,43,106.9,43,107,43.2z"
				/>
			<path class="st0" d="M107.5,42c0.1,0,0.2,0,0.2,0.1c0,0.1,0,0.2-0.1,0.2c-0.1,0-0.2,0-0.2-0.1C107.4,42.1,107.4,42,107.5,42z
				 M108.1,42.3c0.1-0.1,0.2,0,0.3,0.1c0.6,0.4,1.2,0.9,1.7,1.4c0.1,0.1,0.1,0.1,0,0.2l-0.1,0c-0.1,0.1-0.2,0-0.3-0.1
				c-0.1-0.1-0.3-0.3-0.4-0.4l-1,0.5c0,0.2,0.1,0.4,0.1,0.6c0,0.1,0.1,0.2,0,0.3l-0.1,0c-0.1,0.1-0.2,0-0.2-0.1
				c-0.2-0.7-0.3-1.5-0.3-2.2C108,42.5,107.9,42.4,108.1,42.3L108.1,42.3z M108.1,41.6c0.1,0,0.2,0,0.2,0.1c0,0.1,0,0.2-0.1,0.2
				c-0.1,0-0.2,0-0.2-0.1C108,41.7,108,41.7,108.1,41.6z M108.4,43.7l0.8-0.4c-0.3-0.2-0.6-0.5-0.9-0.7
				C108.3,43,108.3,43.3,108.4,43.7z"/>
			<path class="st0" d="M109.5,41.5c0.1-0.1,0.1,0,0.2,0l1.2,1.7l0.9-0.7c0.1-0.1,0.1,0,0.2,0c0.1,0.1,0,0.1,0,0.2l-1,0.8
				c-0.1,0.1-0.1,0-0.2,0l-1.3-1.8C109.4,41.6,109.4,41.5,109.5,41.5L109.5,41.5z"/>
			<path class="st0" d="M111,40.3c0.1-0.1,0.1-0.1,0.2,0l1.4,1.5l0.8-0.7c0.1-0.1,0.1-0.1,0.2,0c0.1,0.1,0.1,0.1,0,0.2l-1,0.9
				c-0.1,0.1-0.1,0.1-0.2,0l-1.5-1.6C110.9,40.4,110.9,40.4,111,40.3L111,40.3z"/>
			<path class="st0" d="M113.5,38.2c0.1,0.1,0.1,0.1,0,0.2c-0.1,0-0.3,0-0.5,0.3c-0.2,0.2-0.2,0.5-0.1,0.7c0.2,0.1,0.4,0.1,0.7-0.1
				c0.4-0.3,0.8-0.5,1.1-0.2c0.3,0.3,0.3,0.8-0.1,1.2c-0.3,0.4-0.6,0.5-0.8,0.4c-0.1-0.1-0.1-0.2,0-0.3c0.2,0,0.4,0,0.6-0.3
				c0.3-0.3,0.3-0.6,0.1-0.8c-0.2-0.2-0.5,0-0.8,0.2c-0.4,0.3-0.7,0.4-1,0.1c-0.3-0.2-0.3-0.7,0.1-1.1
				C113.1,38.1,113.3,38,113.5,38.2z"/>
			<path class="st0" d="M113.7,37.4c0.1-0.1,0.1-0.1,0.2,0l0.8,0.5c-0.1-0.6-0.1-1-0.3-1.4c0-0.1,0-0.2,0-0.2l0.1-0.1
				c0,0,0.1-0.1,0.1,0c0,0,0,0,0,0.1c0.1,0.4,0.2,0.9,0.2,1.5c0.4-0.2,1-0.3,1.6-0.3c0,0,0.1,0,0.1,0c0,0,0,0.1,0,0.1l-0.1,0.1
				c0,0.1-0.1,0.1-0.2,0.1c-0.5,0-1,0.1-1.5,0.3l0.9,0.6c0.1,0.1,0.1,0.1,0,0.2l0,0c-0.1,0.1-0.1,0.1-0.2,0l-1.8-1.2
				C113.6,37.6,113.6,37.5,113.7,37.4L113.7,37.4z"/>
			<path class="st0" d="M115.2,34.9c0.1-0.1,0.1-0.1,0.3-0.1c0.7,0,1.5,0.1,2.2,0.2c0.1,0,0.2,0.1,0.1,0.2l0,0.1
				c-0.1,0.1-0.2,0.1-0.3,0.1c-0.2,0-0.4-0.1-0.6-0.1l-0.5,1c0.1,0.1,0.3,0.3,0.4,0.4c0.1,0.1,0.2,0.2,0.1,0.3l0,0.1
				c-0.1,0.1-0.1,0.1-0.2,0c-0.6-0.5-1.1-1.1-1.5-1.7C115.2,35.1,115.1,35.1,115.2,34.9L115.2,34.9z M116.2,35.9l0.4-0.8
				c-0.4,0-0.7,0-1.1,0C115.7,35.4,115.9,35.6,116.2,35.9z"/>
			<path class="st0" d="M116,32.9c0.1-0.4,0.5-0.7,1-0.6c0.5,0.2,0.6,0.6,0.4,1l-0.2,0.5l0.8,0.3c0.1,0,0.1,0.1,0.1,0.2l0,0
				c0,0.1-0.1,0.1-0.2,0.1l-2.1-0.7c-0.1,0-0.1-0.1-0.1-0.2L116,32.9z M117,33.7l0.2-0.5c0.1-0.3,0.1-0.5-0.3-0.7
				c-0.4-0.1-0.5,0.1-0.6,0.3l-0.2,0.5L117,33.7z"/>
			<path class="st0" d="M116.7,30.4c0-0.1,0.1-0.1,0.2-0.1c0.1,0,0.1,0.1,0.1,0.2l-0.2,1.1l0.8,0.2l0.2-0.9c0-0.1,0.1-0.1,0.2-0.1
				c0.1,0,0.1,0.1,0.1,0.2l-0.2,0.9l0.8,0.2l0.2-1c0-0.1,0.1-0.1,0.2-0.1c0.1,0,0.1,0.1,0.1,0.2l-0.3,1.2c0,0.1-0.1,0.1-0.2,0.1
				l-2.1-0.5c-0.1,0-0.1-0.1-0.1-0.2L116.7,30.4z"/>
			<path class="st0" d="M116.9,28.4c0-0.1,0.1-0.1,0.2-0.1c0.1,0,0.1,0.1,0.1,0.2l-0.1,0.6l2,0.2c0.1,0,0.1,0.1,0.1,0.2l0,0
				c0,0.1-0.1,0.1-0.2,0.1l-2-0.2l-0.1,0.6c0,0.1-0.1,0.1-0.1,0.1c-0.1,0-0.1-0.1-0.1-0.2L116.9,28.4z"/>
		</g>
		
			<linearGradient id="SVGID_30_" gradientUnits="userSpaceOnUse" x1="73.8197" y1="-211.5724" x2="75.1925" y2="-245.7775" gradientTransform="matrix(0.9992 -4.010000e-02 4.010000e-02 0.9992 43.7086 248.5961)">
			<stop  offset="0.25" style="stop-color:#FCAF17"/>
			<stop  offset="0.75" style="stop-color:#FFF32A"/>
		</linearGradient>
		<path class="st30" d="M123.1,0c2.6,7.6,0.5,30.9-29,34.2c9-2.3,20.4-13.7,11.9-34.2C113.3,0,117.8,0,123.1,0z"/>
		<linearGradient id="SVGID_31_" gradientUnits="userSpaceOnUse" x1="82.262" y1="18.0785" x2="107.4086" y2="23.4236">
			<stop  offset="0.3" style="stop-color:#B2D784"/>
			<stop  offset="0.4706" style="stop-color:#AFD57E"/>
			<stop  offset="0.7455" style="stop-color:#A7D16B"/>
			<stop  offset="0.85" style="stop-color:#A3CF62"/>
		</linearGradient>
		<path class="st31" d="M108.7,9.9c-3.8-1.9-8-2.4-12.2-1.8c-7.7,1.1-14.9,7.9-15.1,15c-0.2,6.2,4.4,12.1,12.7,11.2
			C101.5,32.3,110.5,24.2,108.7,9.9z"/>
	</g>
</g>
</svg>
